# xmcd CD database file
# Copyright (C) 1997 Ti Kan
# 
# Track frame offsets:
#     150
#     13125
#     24980
#     38385
#     49802
#     62822
#     72935
#     89190
#     100932
#     116502
#     126482
#     140657
#     151370
#     164975
#     179690
#     191292
# 
# Disc length: 2696 seconds
# 
# Revision: 1
# Processed by: cddbd v1.4b41PL1 Copyright (c) Steve Scherf et al.
# Submitted via: DiscPlay 4.0.4
# 
DISCID=ea0a8610
DTITLE=Charles Brown - Please Come Home For Christmas
DYEAR=1900
DGENRE=
TTITLE0=Please Come Home For Christmas
TTITLE1=Christmas In Heaven
TTITLE2=Christmas Blues
TTITLE3=I'll Be Home For Christmas - Bill Doggett
TTITLE4=It's Christmas Time
TTITLE5=Wrap Yourself In a Christmas Package
TTITLE6=Blue Christmas - Bill Doggett
TTITLE7=Christmas Questions
TTITLE8=Merry Christmas Baby
TTITLE9=Bringing in a Brand New Year
TTITLE10=The Christmas Song - Bill Doggett
TTITLE11=Christmas Comes But Once a Year
TTITLE12=It's Christmas All Year Round
TTITLE13=Christmas Witn No One To Love
TTITLE14=Winter Wonderland - Bill Doggett
TTITLE15=Let's Make Every Day a Christmas Day
EXTD=
EXTT0=
EXTT1=
EXTT2=
EXTT3=
EXTT4=
EXTT5=
EXTT6=
EXTT7=
EXTT8=
EXTT9=
EXTT10=
EXTT11=
EXTT12=
EXTT13=
EXTT14=
EXTT15=
PLAYORDER=
